<svg width="192" height="192" viewBox="0 0 192 192" fill="none" xmlns="http://www.w3.org/2000/svg">
  <rect width="192" height="192" rx="48" fill="#171532"/>
  <path d="M134.364 96C134.364 117.596 116.914 135.046 95.3182 135.046C73.7227 135.046 56.2727 117.596 56.2727 96C56.2727 74.4046 73.7227 56.9546 95.3182 56.9546C116.914 56.9546 134.364 74.4046 134.364 96Z" fill="white"/>
  <path d="M120.318 83.1818C120.318 91.3273 99.3864 108.818 95.3182 108.818C91.25 108.818 70.3182 91.3273 70.3182 83.1818C70.3182 75.0364 81.8864 68.3637 95.3182 68.3637C108.75 68.3637 120.318 75.0364 120.318 83.1818Z" fill="#CAC5FE"/>
  <path fill-rule="evenodd" clip-rule="evenodd" d="M58.7273 96C58.7273 75.7573 75.0755 59.4091 95.3182 59.4091C115.561 59.4091 131.909 75.7573 131.909 96C131.909 116.243 115.561 132.591 95.3182 132.591C75.0755 132.591 58.7273 116.243 58.7273 96ZM95.3182 56.9546C73.7227 56.9546 56.2727 74.4046 56.2727 96C56.2727 117.596 73.7227 135.046 95.3182 135.046C116.914 135.046 134.364 117.596 134.364 96C134.364 74.4046 116.914 56.9546 95.3182 56.9546Z" fill="#CAC5FE"/>
</svg>